#!OML:ASF E:\Steps\Project 1\Capture day 1\Session 2\Subject.ASF
:FULLY-SPECIFIED
:DEGREES
62
root -0.863144 17.9762 20.926 -154.371 -2.83756 177.723
lowerback -26.9602 -2.82668 -7.17473
upperback 0.229637 -1.80237 -0.20911
thorax 14.871 -1.4721 2.97915
lowerneck 3.40971 -1.37258 -1.60119
upperneck 14.7473 -1.26135 5.91011
head 4.33488 0.0442329 2.29433
rclavicle 8.74653e-015 6.75868e-015
rhumerus -38.1686 -18.087 -77.6949
rradius 33.986
rwrist 0.837101
rhand -10.8524 -55.0256
rfingers 7.12502
rthumb 15.1627 -84.4501
lclavicle 8.74653e-015 6.75868e-015
lhumerus -29.9806 2.0048 82.3757
lradius 30.2802
lwrist -0.765251
lhand -23.0718 -13.4202
lfingers 7.12502
lthumb 3.37379 16.5328
rfemur -22.4665 5.02638 20.1159
rtibia 4.82658
rfoot -16.9706 -3.64966
rtoes -14.0231
lfemur -23.5853 -8.80588 -21.3394
ltibia 7.12374
lfoot -5.4526 -4.0994
ltoes -14.5734
63
root -0.862396 17.9753 20.9276 -154.333 -2.84773 177.701
lowerback -26.9921 -2.83992 -7.22183
upperback 0.247562 -1.7999 -0.214776
thorax 14.9078 -1.47523 2.99829
lowerneck 3.32229 -1.38459 -1.57796
upperneck 14.7552 -1.28549 5.93262
head 4.35578 0.0340922 2.29803
rclavicle -4.37326e-015 7.95139e-015
rhumerus -38.1803 -18.0777 -77.726
rradius 34.0595
rwrist 0.664283
rhand -10.255 -55.4411
rfingers 7.12502
rthumb 15.7381 -84.8212
lclavicle -4.37326e-015 7.95139e-015
lhumerus -29.8598 1.93991 82.3985
lradius 30.2291
lwrist -0.6845
lhand -23.0719 -13.4807
lfingers 7.12502
lthumb 3.37364 16.4724
rfemur -22.461 5.28094 20.0334
rtibia 4.73745
rfoot -16.9356 -3.92224
rtoes -13.8483
lfemur -23.682 -8.84006 -21.3481
ltibia 7.19966
lfoot -5.39997 -4.12051
ltoes -14.6618
64
root -0.863667 17.9754 20.9236 -154.416 -2.77398 177.724
lowerback -26.9951 -2.81812 -7.21776
upperback 0.302203 -1.76349 -0.214827
thorax 14.9696 -1.45909 3.01
lowerneck 3.31722 -1.37403 -1.61353
upperneck 14.6901 -1.28289 5.98797
head 4.33425 0.0315697 2.32221
rclavicle 1.3418e-014 2.82274e-014
rhumerus -38.1445 -17.9425 -77.8206
rradius 34.0323
rwrist 0.149045
rhand -8.90682 -56.757
rfingers 7.12502
rthumb 17.0361 -86.0299
lclavicle 1.3418e-014 2.82274e-014
lhumerus -29.7933 1.79768 82.4541
lradius 30.1931
lwrist -0.519705
lhand -23.0794 -13.528
lfingers 7.12502
lthumb 3.36645 16.4252
rfemur -22.3126 5.43252 20.0383
rtibia 4.67667
rfoot -16.916 -4.01421
rtoes -14.0166
lfemur -23.5399 -8.93082 -21.3303
ltibia 7.16426
lfoot -5.39714 -3.99124
ltoes -14.4935
65
root -0.863296 17.9743 20.9272 -154.362 -2.74011 177.781
lowerback -26.9943 -2.81237 -7.16454
upperback 0.275753 -1.77758 -0.20882
thorax 14.9389 -1.46137 2.98235
lowerneck 3.24596 -1.357 -1.61251
upperneck 14.7536 -1.26168 6.00904
head 4.37064 0.0462163 2.33203
rclavicle -6.75868e-015 1.86858e-014
rhumerus -38.1096 -17.9543 -77.8665
rradius 33.9368
rwrist 0.00507133
rhand -8.432 -57.3347
rfingers 7.12502
rthumb 17.4931 -86.5677
lclavicle -6.75868e-015 1.86858e-014
lhumerus -29.7581 1.73799 82.4561
lradius 30.119
lwrist -0.487087
lhand -23.109 -13.5049
lfingers 7.12502
lthumb 3.33787 16.4488
rfemur -22.4419 5.43208 20.1033
rtibia 4.78332
rfoot -16.9939 -3.97935
rtoes -14.3946
lfemur -23.6384 -8.90291 -21.2524
ltibia 7.21344
lfoot -5.3881 -3.96525
ltoes -14.4387
66
root -0.863782 17.9739 20.9302 -154.342 -2.69617 177.839
lowerback -26.9741 -2.79174 -7.08946
upperback 0.273987 -1.77496 -0.211234
thorax 14.9253 -1.45402 2.94074
lowerneck 3.16648 -1.3495 -1.61208
upperneck 14.7893 -1.25593 6.01724
head 4.39894 0.0503665 2.33635
rclavicle -5.26779e-015 5.96354e-015
rhumerus -38.0876 -18.1385 -77.8289
rradius 33.8488
rwrist 0.124631
rhand -8.62524 -57.3729
rfingers 7.12502
rthumb 17.3072 -86.6223
lclavicle -5.26779e-015 5.96354e-015
lhumerus -29.6778 1.74742 82.4334
lradius 30.0526
lwrist -0.50366
lhand -23.1225 -13.4927
lfingers 7.12502
lthumb 3.32478 16.4611
rfemur -22.5178 5.52814 20.1292
rtibia 4.81624
rfoot -17.0532 -3.96928
rtoes -14.3301
lfemur -23.6952 -8.86189 -21.1861
ltibia 7.23185
lfoot -5.4361 -3.93362
ltoes -14.0688
